<?xml version="1.0" standalone="no"?>
<!DOCTYPE svg PUBLIC "-//W3C//DTD SVG 20010904//EN"
 "http://www.w3.org/TR/2001/REC-SVG-20010904/DTD/svg10.dtd">
<svg version="1.0" xmlns="http://www.w3.org/2000/svg"
 width="112.000000pt" height="45.000000pt" viewBox="0 0 112.000000 45.000000"
 preserveAspectRatio="xMidYMid meet">

<g transform="translate(0.000000,45.000000) scale(0.100000,-0.100000)"
fill="#000000" stroke="none">
<path d="M885 426 c-21 -32 -5 -69 28 -64 31 4 37 62 8 78 -17 9 -23 6 -36
-14z"/>
<path d="M30 365 c0 -51 -3 -65 -15 -65 -8 0 -15 -4 -15 -10 0 -5 7 -10 15
-10 12 0 15 -15 15 -75 0 -43 4 -75 10 -75 6 0 10 9 10 20 0 26 15 25 35 -2
12 -18 19 -20 32 -12 19 12 28 67 10 61 -7 -2 -12 -14 -11 -26 1 -27 -1 -27
-26 10 -21 29 -21 31 -5 50 13 14 22 16 31 8 7 -6 15 -6 18 -1 3 6 0 15 -7 21
-11 8 -19 5 -37 -14 -31 -33 -40 -32 -40 6 l0 30 121 -2 c100 -2 119 -5 105
-15 -11 -8 -13 -14 -7 -19 19 -11 13 -35 -6 -28 -16 5 -16 4 1 -9 18 -14 17
-15 -8 -44 -22 -25 -27 -27 -36 -14 -14 20 -5 78 16 101 23 26 0 25 -26 -1
-20 -20 -27 -71 -14 -104 8 -20 42 -21 65 0 15 14 18 13 30 -15 7 -16 17 -27
21 -25 4 3 4 14 -2 24 -5 10 -10 48 -10 84 l0 66 75 0 c74 0 75 0 75 -25 l0
-26 -31 23 -31 23 -19 -24 c-23 -28 -25 -69 -4 -99 13 -17 24 -21 60 -20 l45
2 0 74 0 73 75 -2 c44 -1 72 -6 69 -11 -4 -5 -16 -7 -28 -4 -48 12 -87 -53
-66 -109 11 -28 57 -35 66 -10 9 23 20 18 36 -15 13 -27 14 -23 10 60 -4 72
-2 90 9 90 11 0 13 -16 11 -75 -2 -48 0 -75 7 -75 6 0 8 -8 4 -17 -4 -11 -2
-15 3 -10 5 5 7 35 6 68 -3 46 -1 59 10 57 7 -2 12 3 10 10 -1 6 5 12 13 12
11 0 15 -13 15 -54 0 -30 3 -61 6 -70 13 -33 19 -14 16 45 -3 48 -1 60 9 54 9
-6 11 -3 6 8 -4 11 -1 17 8 17 11 0 15 -13 15 -52 1 -45 16 -88 31 -88 2 0 3
34 1 75 l-4 75 -69 -2 c-50 -2 -69 0 -69 10 0 8 23 12 80 12 47 0 80 4 80 10
0 6 -30 10 -70 10 -40 0 -70 4 -70 10 0 6 -7 10 -16 10 -8 0 -12 -4 -9 -10 4
-6 -30 -10 -94 -10 l-101 0 0 48 c0 26 -5 53 -12 60 -14 14 -38 16 -38 2 0 -5
7 -7 15 -4 12 5 15 -4 15 -50 l0 -56 -200 0 -200 0 0 55 c0 45 3 55 18 56 14
0 14 2 -3 9 -34 14 -35 12 -35 -55z m575 -158 c-8 -37 -38 -72 -54 -63 -17 11
-13 82 5 100 12 12 20 13 35 5 16 -8 19 -17 14 -42z m-183 26 c23 -21 23 -50
1 -56 -13 -3 -11 -5 6 -6 20 -1 22 -3 11 -16 -34 -41 -81 16 -60 71 11 28 17
30 42 7z"/>
<path d="M578 213 c7 -3 16 -2 19 1 4 3 -2 6 -13 5 -11 0 -14 -3 -6 -6z"/>
<path d="M964 415 c-8 -21 3 -45 20 -45 16 0 31 34 21 50 -9 15 -35 12 -41 -5z"/>
<path d="M70 390 c0 -5 7 -10 16 -10 8 0 12 5 9 10 -3 6 -10 10 -16 10 -5 0
-9 -4 -9 -10z"/>
<path d="M1017 386 c-8 -20 20 -43 35 -28 14 14 3 42 -16 42 -7 0 -16 -6 -19
-14z"/>
<path d="M915 335 c-40 -39 -34 -83 19 -145 25 -29 48 -66 51 -82 9 -37 -17
-78 -48 -78 -48 0 -61 46 -27 90 17 21 21 23 30 10 14 -20 8 -62 -9 -68 -11
-4 -12 2 -7 23 4 17 3 24 -4 20 -5 -3 -10 -17 -10 -31 0 -34 37 -33 50 2 10
26 -10 84 -30 84 -5 0 -22 -18 -36 -40 -23 -35 -25 -44 -16 -65 7 -14 23 -31
37 -37 22 -10 30 -8 53 9 50 37 42 96 -23 172 -27 31 -45 63 -45 77 0 27 40
74 64 74 59 0 104 -65 86 -127 -18 -68 -23 -69 -69 -17 -50 57 -54 97 -9 102
33 4 53 -27 44 -69 -3 -16 -1 -29 4 -29 6 0 10 18 10 40 0 42 -26 80 -55 80
-18 0 -55 -35 -55 -52 0 -22 89 -138 105 -138 11 0 45 85 45 113 0 86 -99 139
-155 82z"/>
<path d="M1057 346 c-7 -16 1 -26 20 -26 7 0 13 9 13 20 0 23 -25 27 -33 6z"/>
<path d="M1080 296 c0 -21 21 -31 31 -15 14 22 11 29 -11 29 -11 0 -20 -6 -20
-14z"/>
<path d="M372 50 c0 -14 2 -19 5 -12 2 6 2 18 0 25 -3 6 -5 1 -5 -13z"/>
<path d="M472 50 c0 -14 2 -19 5 -12 2 6 2 18 0 25 -3 6 -5 1 -5 -13z"/>
</g>
</svg>
